# xmcd
#
# Track frame offsets:
#	150
#	30264
#	79016
#	99456
#	127320
#	165797
#	193325
#	217514
#	277441
#	304744
#	337108
#
# Disc length: 4785 seconds
#
# Revision: 1
# Processed by: cddbd v1.5.2PL0 Copyright (c) Steve Scherf et al.
# Submitted via: audiograbber 1.83.01
#
DISCID=9712af0b
DTITLE=—борник - Blues Paradise vol. 28
DYEAR=2000
DGENRE=Blues
TTITLE0=Rhett Tyler&Early Warning - My Passion
TTITLE1=David Gogo - Hoochie Coochie Man
TTITLE2=Tomcat Blake - If You Know
TTITLE3=Pat Travers - I Love You More Than You'll Ever Know
TTITLE4=Mick Tylor - Blind Will McTell
TTITLE5=Roy Roberts - I'll Chace Your Blues Away
TTITLE6=Steddy Eddy - Blue Train
TTITLE7=Jon Bare - Don't Let The Sun Pass You By
TTITLE8=Bugs Henderson - Rock My Baby
TTITLE9=Toler Brothers - Goin Down Slowly
TTITLE10=Mezz - Ramblin'
EXTD=
EXTT0=
EXTT1=
EXTT2=
EXTT3=
EXTT4=
EXTT5=
EXTT6=
EXTT7=
EXTT8=
EXTT9=
EXTT10=
PLAYORDER=
